<svg width="202" height="184" viewBox="0 0 202 184" fill="none" xmlns="http://www.w3.org/2000/svg">
<circle cx="104" cy="92" r="92" fill="#F9F9F9"/>
<path d="M0 182.254C0 145.079 45.1957 123.698 101 123.698C156.804 123.698 202 145.035 202 182.254" fill="url(#paint0_linear_1536_7276)"/>
<path d="M77.5912 125.721C77.5912 127.657 77.2405 129.505 76.583 131.177H48.8781C48.2206 129.505 47.8699 127.657 47.8699 125.721C47.8699 123.83 48.2206 122.026 48.8343 120.398C50.9823 114.767 56.3742 110.807 62.7306 110.807C69.0869 110.807 74.4788 114.811 76.6268 120.398C77.2405 122.07 77.5912 123.83 77.5912 125.721Z" fill="#AAB4BB"/>
<path d="M156.591 125.721C156.591 127.657 156.241 129.505 155.583 131.177H127.878C127.221 129.505 126.87 127.657 126.87 125.721C126.87 123.83 127.221 122.026 127.834 120.398C129.982 114.767 135.374 110.807 141.731 110.807C148.087 110.807 153.479 114.811 155.627 120.398C156.241 122.07 156.591 123.83 156.591 125.721Z" fill="#AAB4BB"/>
<g filter="url(#filter0_d_1536_7276)">
<path d="M143.39 71.036L142.864 70.508V70.1561H142.513L104.463 31.7488L66.4128 70.1561H65.0538V126.733C65.0538 129.197 67.0265 131.177 69.4814 131.177H138.437C140.892 131.177 142.864 129.197 142.864 126.733V71.036H143.39Z" fill="#E8EBED"/>
</g>
<rect x="94" y="92" width="21" height="39" rx="3" fill="#AAB4BB"/>
<path d="M151.938 76.4913L106.567 30.9569C105.296 29.681 103.192 29.681 101.877 30.9569L56.5057 76.4913C55.6728 77.3272 55.6728 78.735 56.5057 79.5709L58.4345 81.5067C59.2674 82.3426 60.6702 82.3426 61.5031 81.5067L103.586 39.2719C103.937 38.9199 104.463 38.9199 104.814 39.2719L146.897 81.5067C147.73 82.3426 149.133 82.3426 149.966 81.5067L151.895 79.5709C152.771 78.691 152.771 77.3272 151.938 76.4913Z" fill="#AAB4BB"/>
<path d="M112.704 74.4675H95.7396C95.0821 74.4675 94.5122 73.9396 94.5122 73.2357V64.7007C94.5122 59.3334 98.852 54.9779 104.2 54.9779C109.548 54.9779 113.888 59.3334 113.888 64.7007V73.2357C113.932 73.9396 113.362 74.4675 112.704 74.4675Z" fill="white"/>
<path d="M104.244 53.1741C97.8876 53.1741 92.7148 58.3655 92.7148 64.7447V73.2797C92.7148 74.9515 94.0738 76.3593 95.7834 76.3593H112.748C114.414 76.3593 115.817 74.9955 115.817 73.2797V64.7447C115.773 58.3655 110.6 53.1741 104.244 53.1741ZM112.003 63.7768H106.085V57.0897C109.197 57.8376 111.609 60.4772 112.003 63.7768ZM102.403 57.0897V63.7768H96.441C96.8355 60.4772 99.2465 57.8376 102.403 57.0897ZM96.3533 67.4724H102.359V72.6637H96.3533V67.4724ZM106.085 72.6197V67.4284H112.091V72.6197H106.085Z" fill="#AAB4BB"/>
<path d="M78.5555 128.141C78.5555 129.197 78.3364 130.253 77.9857 131.177H62.5551C62.2044 130.253 61.9852 129.197 61.9852 128.141C61.9852 127.085 62.1606 126.073 62.5113 125.149C63.6949 122.026 66.7196 119.782 70.2704 119.782C73.8212 119.782 76.8459 121.982 78.0295 125.149C78.3364 126.117 78.5555 127.085 78.5555 128.141Z" fill="#AAB4BB"/>
<defs>
<filter id="filter0_d_1536_7276" x="46.0538" y="31.7488" width="116.336" height="140.428" filterUnits="userSpaceOnUse" color-interpolation-filters="sRGB">
<feFlood flood-opacity="0" result="BackgroundImageFix"/>
<feColorMatrix in="SourceAlpha" type="matrix" values="0 0 0 0 0 0 0 0 0 0 0 0 0 0 0 0 0 0 127 0" result="hardAlpha"/>
<feOffset dy="22"/>
<feGaussianBlur stdDeviation="9.5"/>
<feColorMatrix type="matrix" values="0 0 0 0 0 0 0 0 0 0 0 0 0 0 0 0 0 0 0.02 0"/>
<feBlend mode="normal" in2="BackgroundImageFix" result="effect1_dropShadow_1536_7276"/>
<feBlend mode="normal" in="SourceGraphic" in2="effect1_dropShadow_1536_7276" result="shape"/>
</filter>
<linearGradient id="paint0_linear_1536_7276" x1="100.993" y1="182.244" x2="100.993" y2="123.697" gradientUnits="userSpaceOnUse">
<stop stop-color="white" stop-opacity="0"/>
<stop offset="0.3178" stop-color="#F7F8F9" stop-opacity="0.3178"/>
<stop offset="1" stop-color="#D4D9DD"/>
</linearGradient>
</defs>
</svg>
