<svg width="960" height="180" viewBox="0 0 960 180" fill="none" xmlns="http://www.w3.org/2000/svg">
  <rect width="960" height="180" rx="20" fill="#F7FBFF"/>
  <g opacity="0.88">
    <path d="M28 142C54 134 72 124 96 118C122 112 140 100 164 94C186 88 206 94 228 82C252 70 268 52 292 44C318 34 336 46 360 56C384 66 404 72 430 74C454 76 472 68 498 72C522 76 540 98 564 108C590 118 608 118 632 104C656 90 674 68 698 58C724 46 742 52 766 64C790 76 808 94 832 108C856 122 878 130 932 132" stroke="#0E3643" stroke-width="4" stroke-linecap="round"/>
  </g>
  <g opacity="0.26">
    <path d="M28 142C54 134 72 124 96 118C122 112 140 100 164 94C186 88 206 94 228 82C252 70 268 52 292 44C318 34 336 46 360 56C384 66 404 72 430 74C454 76 472 68 498 72C522 76 540 98 564 108C590 118 608 118 632 104C656 90 674 68 698 58C724 46 742 52 766 64C790 76 808 94 832 108C856 122 878 130 932 132L932 164H28V142Z" fill="#89C3D2"/>
  </g>
  <g opacity="0.45">
    <line x1="40" y1="154" x2="920" y2="154" stroke="#D8E8F0" stroke-width="2"/>
    <line x1="40" y1="122" x2="920" y2="122" stroke="#E7F1F6" stroke-width="2"/>
    <line x1="40" y1="90" x2="920" y2="90" stroke="#EEF5F9" stroke-width="2"/>
  </g>
</svg>
